<svg width="1067" height="632" xmlns="http://www.w3.org/2000/svg" xmlns:xlink="http://www.w3.org/1999/xlink" overflow="hidden"><defs><clipPath id="clip0"><path d="M85 31 1152 31 1152 663 85 663Z" fill-rule="evenodd" clip-rule="evenodd"/></clipPath></defs><g clip-path="url(#clip0)" transform="translate(-85 -31)"><path d="M672.5 248.5 739.5 282 739.5 368 672.5 401.5 605.5 368 605.5 282Z" stroke="#FFFFFF" stroke-miterlimit="8" fill="#ED7D31" fill-rule="evenodd"/><text fill="#FFFFFF" font-family="Calibri,Calibri_MSFontService,sans-serif" font-weight="400" font-size="24" transform="translate(651.273 318)">Tipe<tspan x="-1.76666" y="26">Data</tspan></text><path d="M528.5 248.5 595.5 282 595.5 368 528.5 401.5 461.5 368 461.5 282Z" stroke="#FFFFFF" stroke-miterlimit="8" fill="#A5A5A5" fill-rule="evenodd"/><text fill="#FFFFFF" font-family="Calibri,Calibri_MSFontService,sans-serif" font-weight="400" font-size="24" transform="translate(493.346 331)">Aljabar</text><path d="M600.5 378.5 667.5 412 667.5 499 600.5 532.5 533.5 499 533.5 412Z" stroke="#FFFFFF" stroke-miterlimit="8" fill="#FFC000" fill-rule="evenodd"/><text fill="#595959" font-family="Calibri,Calibri_MSFontService,sans-serif" font-weight="400" font-size="24" transform="translate(567.749 462)">Vektor</text><path d="M744.5 378.5 811.5 412 811.5 499 744.5 532.5 677.5 499 677.5 412Z" stroke="#FFFFFF" stroke-miterlimit="8" fill="#5B9BD5" fill-rule="evenodd"/><text fill="#FFFFFF" font-family="Calibri,Calibri_MSFontService,sans-serif" font-weight="400" font-size="24" transform="translate(707.103 462)">Matriks</text><path d="M672.5 508.5 739.5 542 739.5 629 672.5 662.5 605.5 629 605.5 542Z" stroke="#FFFFFF" stroke-miterlimit="8" fill="#70AD47" fill-rule="evenodd"/><text fill="#FFFFFF" font-family="Calibri,Calibri_MSFontService,sans-serif" font-weight="400" font-size="24" transform="translate(649.506 579)">Data <tspan x="-8.11334" y="26">Frame</tspan></text><path d="M528.5 508.5 595.5 542 595.5 629 528.5 662.5 461.5 629 461.5 542Z" stroke="#FFFFFF" stroke-miterlimit="8" fill="#7030A0" fill-rule="evenodd"/><text fill="#FFFFFF" font-family="Calibri,Calibri_MSFontService,sans-serif" font-weight="400" font-size="24" transform="translate(511.516 592)">List</text><rect x="87" y="270" width="269" height="106" stroke="#2F528F" stroke-width="2" stroke-miterlimit="8" stroke-dasharray="6 2" fill="none"/><text fill="#404040" font-family="Wingdings,Wingdings_MSFontService,sans-serif" font-weight="400" font-size="16" transform="translate(96.4571 290)"><tspan font-family="Calibri,Calibri_MSFontService,sans-serif" x="18" y="0">Jumlah</tspan><tspan x="0" y="26"></tspan><tspan font-family="Calibri,Calibri_MSFontService,sans-serif" x="18" y="26">Kurang</tspan><tspan x="0" y="52"></tspan><tspan font-family="Calibri,Calibri_MSFontService,sans-serif" x="18" y="52">Kali</tspan><tspan x="0" y="78"></tspan><tspan font-family="Calibri,Calibri_MSFontService,sans-serif" x="18" y="78">Bagi</tspan><tspan x="125" y="0"></tspan><tspan font-family="Calibri,Calibri_MSFontService,sans-serif" x="143" y="0">Tanda</tspan><tspan font-family="Calibri,Calibri_MSFontService,sans-serif" x="185.247" y="0">Kurung</tspan><tspan x="125" y="26"></tspan><tspan font-family="Calibri,Calibri_MSFontService,sans-serif" x="143" y="26">Pangkat</tspan><tspan x="125" y="52"></tspan><tspan font-family="Calibri,Calibri_MSFontService,sans-serif" x="143" y="52">Akar</tspan></text><path d="M370.667 322 440.215 322 440.215 324 370.667 324ZM372 327 364 323 372 319ZM438.882 319 446.882 323 438.882 327Z" fill="#7F7F7F"/><path d="M243.889 145.76C241.003 133.42 255.862 122.055 277.077 120.377 285.674 119.697 294.414 120.713 301.9 123.264 309.832 114.567 328.367 111.262 343.299 115.882 345.911 116.69 348.307 117.713 350.414 118.921 356.592 111.712 371.639 108.783 384.023 112.379 387.451 113.375 390.441 114.814 392.763 116.587 402.72 109.77 420.315 108.928 432.062 114.706 436.999 117.135 440.327 120.485 441.474 124.182 457.789 126.771 467.413 136.58 462.971 146.089 462.597 146.889 462.129 147.672 461.569 148.434 474.653 158.343 471.45 172.545 454.414 180.156 449.111 182.525 442.848 184.059 436.229 184.609 436.082 195.27 421.094 203.843 402.753 203.757 396.625 203.729 390.631 202.715 385.433 200.829 379.229 212.781 357.591 219.536 337.102 215.917 328.515 214.401 321.096 211.194 316.11 206.843 295.132 214.204 267.903 210.244 255.293 197.999 255.134 197.844 254.978 197.689 254.825 197.533 241.095 198.468 228.659 192.769 227.048 184.804 226.189 180.558 228.598 176.309 233.633 173.188 221.746 169.117 217.753 160.181 224.714 153.229 228.73 149.218 235.774 146.567 243.68 146.09Z" fill="#F2F2F2" fill-rule="evenodd"/><path d="M228.956 244.604C228.956 246.23 227.637 247.548 226.011 247.548 224.385 247.548 223.067 246.23 223.067 244.604 223.067 242.978 224.385 241.659 226.011 241.659 227.637 241.659 228.956 242.978 228.956 244.604Z" fill="#F2F2F2" fill-rule="evenodd"/><path d="M248.081 233.621C248.081 236.873 245.444 239.51 242.192 239.51 238.939 239.51 236.303 236.873 236.303 233.621 236.303 230.369 238.939 227.732 242.192 227.732 245.444 227.732 248.081 230.369 248.081 233.621Z" fill="#F2F2F2" fill-rule="evenodd"/><path d="M272.078 219.331C272.078 224.21 268.123 228.165 263.245 228.165 258.366 228.165 254.412 224.21 254.412 219.331 254.412 214.453 258.366 210.498 263.245 210.498 268.123 210.498 272.078 214.453 272.078 219.331Z" fill="#F2F2F2" fill-rule="evenodd"/><path d="M243.889 145.76C241.003 133.42 255.862 122.055 277.077 120.377 285.674 119.697 294.414 120.713 301.9 123.264 309.832 114.567 328.367 111.262 343.299 115.882 345.911 116.69 348.307 117.713 350.414 118.921 356.592 111.712 371.639 108.783 384.023 112.379 387.451 113.375 390.441 114.814 392.763 116.587 402.72 109.77 420.315 108.928 432.062 114.706 436.999 117.135 440.327 120.485 441.474 124.182 457.789 126.771 467.413 136.58 462.971 146.089 462.597 146.889 462.129 147.672 461.569 148.434 474.653 158.343 471.45 172.545 454.414 180.156 449.111 182.525 442.848 184.059 436.229 184.609 436.082 195.27 421.094 203.843 402.753 203.757 396.625 203.729 390.631 202.715 385.433 200.829 379.229 212.781 357.591 219.536 337.102 215.917 328.515 214.401 321.096 211.194 316.11 206.843 295.132 214.204 267.903 210.244 255.293 197.999 255.134 197.844 254.978 197.689 254.825 197.533 241.095 198.468 228.659 192.769 227.048 184.804 226.189 180.558 228.598 176.309 233.633 173.188 221.746 169.117 217.753 160.181 224.714 153.229 228.73 149.218 235.774 146.567 243.68 146.09Z" stroke="#2F528F" stroke-miterlimit="8" fill="none" fill-rule="evenodd"/><path d="M228.956 244.604C228.956 246.23 227.637 247.548 226.011 247.548 224.385 247.548 223.067 246.23 223.067 244.604 223.067 242.978 224.385 241.659 226.011 241.659 227.637 241.659 228.956 242.978 228.956 244.604Z" stroke="#2F528F" stroke-miterlimit="8" fill="none" fill-rule="evenodd"/><path d="M248.081 233.621C248.081 236.873 245.444 239.51 242.192 239.51 238.939 239.51 236.303 236.873 236.303 233.621 236.303 230.369 238.939 227.732 242.192 227.732 245.444 227.732 248.081 230.369 248.081 233.621Z" stroke="#2F528F" stroke-miterlimit="8" fill="none" fill-rule="evenodd"/><path d="M272.078 219.331C272.078 224.21 268.123 228.165 263.245 228.165 258.366 228.165 254.412 224.21 254.412 219.331 254.412 214.453 258.366 210.498 263.245 210.498 268.123 210.498 272.078 214.453 272.078 219.331Z" stroke="#2F528F" stroke-miterlimit="8" fill="none" fill-rule="evenodd"/><path d="M248.441 174.731C243.366 174.962 238.292 174.279 233.899 172.775M261.272 196.132C259.231 196.605 257.092 196.919 254.909 197.068M316.096 206.415C314.561 205.076 313.276 203.645 312.262 202.146M386.988 195.769C386.763 197.357 386.25 198.928 385.458 200.453M417.426 166.822C428.932 170.08 436.194 176.892 436.091 184.331M461.452 148.174C459.588 150.707 456.743 152.955 453.14 154.74M441.508 123.814C441.826 124.837 441.973 125.875 441.947 126.914M388.429 120.197C389.512 118.767 390.946 117.435 392.687 116.243M348.606 122.082C349.048 120.899 349.74 119.754 350.668 118.671M301.87 123.24C304.579 124.163 307.085 125.274 309.333 126.548M245.192 149.242C244.601 148.103 244.165 146.939 243.89 145.761" stroke="#2F528F" stroke-miterlimit="8" fill="none" fill-rule="evenodd"/><text fill="#404040" font-family="Wingdings,Wingdings_MSFontService,sans-serif" font-weight="400" font-size="16" transform="translate(294.54 147)"><tspan font-family="Calibri,Calibri_MSFontService,sans-serif" x="21.6667" y="0">Asosisatif</tspan><tspan x="0.660004" y="19"></tspan><tspan font-family="Calibri,Calibri_MSFontService,sans-serif" x="18.66" y="19">Komutatif</tspan><tspan x="0.43335" y="38"></tspan><tspan font-family="Calibri,Calibri_MSFontService,sans-serif" x="18.4333" y="38">Distributif</tspan></text><rect x="838" y="270" width="262" height="106" stroke="#7F7F7F" stroke-width="2" stroke-miterlimit="8" stroke-dasharray="6 2" fill="none"/><text fill="#404040" font-family="Wingdings,Wingdings_MSFontService,sans-serif" font-weight="400" font-size="16" transform="translate(847.954 299)"><tspan font-family="Calibri,Calibri_MSFontService,sans-serif" x="18" y="0">Numerik</tspan><tspan x="0" y="26"></tspan><tspan font-family="Calibri,Calibri_MSFontService,sans-serif" x="18" y="26">Bilangan</tspan><tspan font-family="Calibri,Calibri_MSFontService,sans-serif" x="76.8667" y="26">bulat</tspan><tspan x="0" y="52"></tspan><tspan font-family="Calibri,Calibri_MSFontService,sans-serif" x="18" y="52">Kompleks</tspan><tspan x="121" y="0"></tspan><tspan font-family="Calibri,Calibri_MSFontService,sans-serif" x="139" y="0">Logis</tspan><tspan x="121" y="26"></tspan><tspan font-family="Calibri,Calibri_MSFontService,sans-serif" x="139" y="26">Karakter</tspan></text><path d="M753.667 322 823.215 322 823.215 324 753.667 324ZM755 327 747 323 755 319ZM821.882 319 829.882 323 821.882 327Z" fill="#7F7F7F"/><rect x="163" y="402" width="269" height="106" stroke="#2F528F" stroke-width="2" stroke-miterlimit="8" stroke-dasharray="6 2" fill="none"/><text fill="#404040" font-family="Calibri,Calibri_MSFontService,sans-serif" font-weight="400" font-size="16" transform="translate(176.882 441)">Mengenal<tspan font-weight="700" x="68.7" y="0">vector</tspan><tspan x="114.067" y="0">adalah</tspan><tspan x="161.067" y="0">langkah</tspan><tspan x="214.96" y="0">yang </tspan><tspan x="7.65332" y="19">penting</tspan><tspan x="60.6733" y="19">untuk</tspan><tspan x="101.86" y="19">menyusun</tspan><tspan x="172.893" y="19">data </tspan><tspan x="205.22" y="19">dalam</tspan><tspan x="146.48" y="38">bentuk</tspan><tspan font-weight="700" x="195.667" y="38">matriks</tspan></text><path d="M444.667 459 514.215 459 514.215 461 444.667 461ZM446 464 438 460 446 456ZM512.882 456 520.882 460 512.882 464Z" fill="#7F7F7F"/><path d="M0-1 1.38582-1 1.38582 59.8865 0.385819 58.8865 66.4056 58.8865 66.4056 60.8865-0.614181 60.8865-0.614181 0 0.385819 1 0 1ZM65.0722 55.8865 73.0722 59.8865 65.0722 63.8865Z" fill="#7F7F7F" transform="matrix(-4.37114e-08 -1 -1 4.37114e-08 156.887 460.072)"/><rect x="838" y="539" width="312" height="114" stroke="#7F7F7F" stroke-width="2" stroke-miterlimit="8" stroke-dasharray="6 2" fill="none"/><text fill="#404040" font-family="Calibri,Calibri_MSFontService,sans-serif" font-weight="700" font-size="16" transform="translate(847.954 563)">List <tspan font-weight="400" x="26.1534" y="0">adalah</tspan><tspan font-weight="400" x="73.1534" y="0">kumpulan</tspan><tspan font-weight="400" x="141.453" y="0">vector </tspan><tspan font-weight="400" x="186.147" y="0">atau</tspan><tspan font-weight="400" x="218.473" y="0">matriks</tspan><tspan font-weight="400" x="0" y="19">yang </tspan><tspan font-weight="400" x="34.0934" y="19">disusun</tspan><tspan font-weight="400" x="87.4267" y="19">dalam</tspan><tspan font-weight="400" x="131.26" y="19">suatu</tspan><tspan font-weight="400" x="170.78" y="19">wadah</tspan><tspan font-weight="400" x="214.1" y="19">. </tspan><tspan font-weight="400" x="221.767" y="19">Sedangkan</tspan><tspan x="0" y="38">Data Frame </tspan><tspan font-weight="400" x="79.8467" y="38">adalah</tspan><tspan font-weight="400" x="126.847" y="38">kumpulan</tspan><tspan font-weight="400" x="195.147" y="38">list yang </tspan><tspan font-weight="400" x="251.727" y="38">Setiap</tspan><tspan font-weight="400" x="0" y="58">kolom</tspan><tspan font-weight="400" x="43.96" y="58">harus</tspan><tspan font-weight="400" x="83.7933" y="58">berisi</tspan><tspan font-weight="400" x="122.96" y="58">jumlah</tspan><tspan font-weight="400" x="171.293" y="58">item data yang </tspan><tspan font-weight="400" x="0" y="77">sama</tspan><tspan font-weight="400" x="34.5" y="77">.</tspan></text><path d="M753.667 591 823.215 591 823.215 593 753.667 593ZM755 596 747 592 755 588ZM821.882 588 829.882 592 821.882 596Z" fill="#7F7F7F"/><path d="M986 393.667 986 522.004 984 522.004 984 393.667ZM981 395 985 387 989 395ZM989 520.67 985 528.67 981 520.67Z" fill="#7F7F7F"/><path d="M0-1 1.38582-1 1.38582 59.8865 0.385819 58.8865 66.4056 58.8865 66.4056 60.8865-0.614181 60.8865-0.614181 0 0.385819 1 0 1ZM65.0722 55.8865 73.0722 59.8865 65.0722 63.8865Z" fill="#7F7F7F" transform="matrix(-4.37114e-08 -1 -1 4.37114e-08 446.887 592.072)"/><rect x="545.5" y="32.5001" width="126" height="39" stroke="#7F7F7F" stroke-miterlimit="8" stroke-dasharray="3 1" fill="#7F7F7F"/><text fill="#FFFFFF" font-family="Calibri,Calibri_MSFontService,sans-serif" font-weight="700" font-size="16" transform="translate(557.707 57)">Pendahuluan<tspan x="91.5734" y="0">R</tspan></text></g></svg>